Coordinates
version=1
nRows=37
nColumns=19
inDegrees=yes

Units are S.I. units (second, meters, Newtons, ...)
If the header above contains a line with 'inDegrees', this indicates whether rotational values are in degrees (yes) or radians (no).

endheader
time	pelvis_tilt	pelvis_list	pelvis_rotation	pelvis_tx	pelvis_ty	pelvis_tz	hip_flexion_r	hip_adduction_r	hip_rotation_r	knee_angle_r	knee_angle_r_beta	ankle_angle_r	hip_flexion_l	hip_adduction_l	hip_rotation_l	knee_angle_l	knee_angle_l_beta	ankle_angle_l
     13.26666667	     -2.83722971	      5.10130365	     -0.18240283	      2.28359877	      1.02657064	      1.03918848	     -5.45620896	     -9.03306823	     -6.59375901	     49.43386146	      0.86278364	    -10.40222915	     19.38215918	      6.59757699	     -9.27876160	     11.39596239	      0.19889707	      2.03195953
     13.27333333	     -2.18534699	      5.78194994	      0.21172409	      2.28344132	      1.02304669	      1.03820357	     -5.14618516	    -10.28997355	     -7.60180178	     52.38015368	      0.91420614	     -9.76787026	     18.80487085	      7.39741734	     -9.65388826	     13.00622384	      0.22700143	      2.10696765
     13.28000000	     -2.18877834	      6.15784241	      0.67211828	      2.28286400	      1.01850640	      1.03703782	     -3.97255679	    -11.19909319	     -8.35030830	     55.45113195	      0.96780483	     -9.14757228	     19.34513832	      7.74839600	    -10.13883189	     15.61873267	      0.27259831	      2.65505519
     13.28666667	     -1.86829770	      6.67201577	      1.07821485	      2.28222801	      1.01422541	      1.03596123	     -3.12597963	    -12.28165607	     -9.03167808	     58.44180749	      1.02000196	     -8.47780813	     19.44003617	      8.22397726	    -10.50753737	     18.15164681	      0.31680600	      3.34221336
     13.29333333	     -1.14145584	      7.23643291	      1.41287510	      2.28138393	      1.01037196	      1.03498615	     -2.68818792	    -13.40649375	     -9.59950744	     61.30304510	      1.06993998	     -7.79218777	     19.05210981	      8.72064871	    -10.77467644	     20.67605531	      0.36086524	      4.28229561
     13.30000000	     -0.93407596	      7.51233671	      1.75822548	      2.28018125	      1.00589238	      1.03402798	     -1.51730859	    -14.12822917	     -9.79259968	     64.18944633	      1.12031718	     -7.06952762	     19.40235629	      8.86533947	    -10.92079979	     23.61881047	      0.41222601	      5.66126082
     13.30666667	     -0.44489335	      7.89509307	      2.00175610	      2.27882461	      1.00189394	      1.03325349	     -0.58171095	    -14.91433948	     -9.79123060	     66.94691528	      1.16844410	     -6.32898947	     19.30085854	      9.12720625	    -10.97065497	     26.28652699	      0.45878644	      7.11509471
     13.31333333	      0.12583345	      8.22771394	      2.15136909	      2.27717618	      0.99820939	      1.03262564	      0.38559584	    -15.55781090	     -9.51780707	     69.58740575	      1.21452935	     -5.57853265	     19.03259131	      9.34470135	    -10.90143266	     28.79383902	      0.50254730	      8.78165891
     13.32000000	      1.00374858	      8.62607103	      2.23933602	      2.27540668	      0.99520144	      1.03216115	      1.05863570	    -16.18549524	     -9.11498076	     72.02820349	      1.25712931	     -4.81864411	     18.24800399	      9.66969903	    -10.70240768	     30.94351953	      0.54006630	     10.50918994
     13.32666667	      1.33648369	      8.70875275	      2.17900816	      2.27330185	      0.99193127	      1.03193605	      2.57947647	    -16.28370214	     -8.16473953	     74.41656143	      1.29881401	     -4.07436333	     18.05830382	      9.62194011	    -10.58573016	     33.08184449	      0.57738711	     12.30774975
     13.33333333	      2.13205985	      8.97386152	      2.19434665	      2.27128182	      0.98965268	      1.03168761	      3.48639557	    -16.56595947	     -7.42831004	     76.49837310	      1.33514848	     -3.32375831	     17.06929676	      9.88482659	    -10.19677419	     34.66199671	      0.60496597	     14.05745199
     13.34000000	      2.41998949	      8.95844225	      1.87494317	      2.26903573	      0.98729629	      1.03192452	      5.24701844	    -16.27744303	     -5.95718965	     78.49928827	      1.37007104	     -2.60986305	     16.57248958	      9.73400792	    -10.21208629	     36.09436010	      0.62996543	     15.67457196
     13.34666667	      2.64296216	      8.96693072	      1.70195760	      2.26696291	      0.98540460	      1.03199647	      6.97635192	    -16.00951229	     -4.70593635	     80.22856144	      1.40025255	     -1.89929630	     15.91286112	      9.72208567	     -9.98539009	     37.12521088	      0.64795717	     17.17197138
     13.35333333	      2.96693303	      8.89545181	      1.44674239	      2.26497390	      0.98418694	      1.03226858	      8.57506713	    -15.55150021	     -3.40948334	     81.66840522	      1.42538257	     -1.22739101	     14.93766391	      9.61787211	     -9.83438097	     37.78104161	      0.65940357	     18.51306685
     13.36000000	      3.01144112	      8.74852606	      1.17904094	      2.26314747	      0.98318048	      1.03253802	     10.45839883	    -14.95574100	     -2.10410393	     82.87605910	      1.44646010	     -0.62057362	     14.09450452	      9.46275128	     -9.69554611	     38.13934112	      0.66565708	     19.70750769
     13.36666667	      2.84333432	      8.51898225	      0.97553365	      2.26163093	      0.98250386	      1.03274937	     12.46902005	    -14.24506692	     -0.92624270	     83.78846118	      1.46238452	     -0.07391208	     13.30491514	      9.25351622	     -9.51517213	     38.21583240	      0.66699210	     20.72307888
     13.37333333	      2.84680688	      8.22059295	      1.02165162	      2.26036644	      0.98259423	      1.03263337	     14.04293809	    -13.57305392	     -0.23691928	     84.31748880	      1.47161780	      0.47052906	     12.12867598	      9.08921319	     -8.94477465	     37.96848500	      0.66267508	     21.59368848
     13.38000000	      2.41452108	      7.86619788	      0.67071890	      2.25929979	      0.98255880	      1.03303734	     16.22234386	    -12.64585736	      0.91718662	     84.69377922	      1.47818530	      0.87485673	     11.34872467	      8.69847278	     -9.06581357	     37.56311620	      0.65560005	     22.21698333
     13.38666667	      2.15328835	      7.41117125	      0.82526730	      2.25862358	      0.98334990	      1.03276447	     17.83069859	    -11.90058324	      1.22265177	     84.62340961	      1.47695712	      1.30134509	     10.20273082	      8.38851751	     -8.45831802	     36.89191987	      0.64388547	     22.72776153
     13.39333333	      1.64382726	      6.93204475	      0.70201471	      2.25810050	      0.98419127	      1.03286981	     19.74893064	    -11.00083909	      1.79988377	     84.36541437	      1.47245426	      1.59774500	      9.26027709	      7.96053398	     -8.27160265	     36.07451109	      0.62961899	     23.05802152
     13.40000000	      1.21281040	      6.37495366	      0.88040909	      2.25784392	      0.98558324	      1.03260605	     21.31628271	    -10.22723372	      1.83834639	     83.74043987	      1.46154639	      1.90065720	      8.14594746	      7.52243641	     -7.70324200	     35.12112253	      0.61297923	     23.21025993
     13.40666667	      0.74963117	      5.78396622	      1.04706864	      2.25778989	      0.98731290	      1.03240626	     22.80816372	     -9.45534205	      1.77012633	     82.84697878	      1.44595256	      2.14903773	      7.00274469	      7.03023027	     -7.18067093	     34.02910129	      0.59391986	     23.16304537
     13.41333333	      0.31537859	      5.16144881	      1.24324741	      2.25793435	      0.98945549	      1.03215988	     24.12723940	     -8.71555562	      1.54647823	     81.66020316	      1.42523941	      2.34574321	      5.77599412	      6.49409993	     -6.65501784	     32.81912835	      0.57280185	     22.88732447
     13.42000000	      0.51389463	      4.54654846	      1.47624099	      2.25836947	      0.99264849	      1.03187832	     24.55124884	     -8.14885291	      0.99687289	     80.12503015	      1.39844559	      2.59577521	      3.74443841	      5.95006764	     -6.07287690	     31.35306815	      0.54721427	     22.35197935
     13.42666667	      0.38465564	      3.89134733	      1.74009043	      2.25888372	      0.99568847	      1.03163974	     25.24710936	     -7.53865849	      0.40554349	     78.38340581	      1.36804851	      2.80137127	      2.12497646	      5.33088494	     -5.53760358	     29.95728147	      0.52285320	     21.58269755
     13.43333333	      0.29438574	      3.24082028	      2.00208512	      2.25958355	      0.99900786	      1.03143672	     25.77574771	     -6.97300458	     -0.28041822	     76.39092737	      1.33327320	      2.99184792	      0.45712492	      4.68736027	     -5.06324849	     28.50661064	      0.49753421	     20.53590219
     13.44000000	      0.21434468	      2.60239831	      2.23466180	      2.26045160	      1.00251441	      1.03129696	     26.18008773	     -6.42742944	     -1.00762240	     74.15972814	      1.29433143	      3.16348622	     -1.20656743	      4.02577995	     -4.68707909	     27.03995927	      0.47193632	     19.20432562
     13.44666667	     -0.59762363	      1.99546395	      2.40798456	      2.26142398	      1.00512889	      1.03130550	     27.36417688	     -5.92290477	     -1.69249564	     71.85049951	      1.25402779	      3.34124370	     -1.89228500	      3.34697533	     -4.65730453	     25.91680783	      0.45233363	     17.70470666
     13.45333333	      0.03117030	      1.37991516	      2.57404052	      2.26259208	      1.00979562	      1.03129278	     26.70712072	     -5.37967694	     -2.54272733	     69.04840361	      1.20512199	      3.34374816	     -4.40529864	      2.67982286	     -4.30590184	     24.16514222	      0.42176130	     15.79277340
     13.46000000	     -0.13416320	      0.78735034	      2.67092022	      2.26383184	      1.01347046	      1.03140698	     26.89726019	     -4.81774664	     -3.26824164	     66.17094635	      1.15490088	      3.34464802	     -5.84375529	      1.99986587	     -4.29698238	     22.81383196	      0.39817648	     13.73512265
     13.46666667	     -0.58411609	      0.25199067	      2.71316836	      2.26514633	      1.01677332	      1.03165079	     27.32492167	     -4.27316800	     -3.92627704	     63.13400453	      1.10189625	      3.27936199	     -6.85945420	      1.37226278	     -4.43976724	     21.64800416	      0.37782895	     11.51383096
     13.47333333	     -0.70949414	     -0.26479971	      2.70940207	      2.26653629	      1.02046621	      1.03201840	     27.26454992	     -3.66073681	     -4.52589273	     59.84559766	      1.04450272	      3.14610147	     -8.21248010	      0.75359518	     -4.61178715	     20.44228787	      0.35678523	      9.11979303
     13.48000000	     -1.62324214	     -0.64662406	      2.67562583	      2.26781769	      1.02310639	      1.03256136	     28.04843146	     -3.13652946	     -4.94057504	     56.51595618	      0.98638952	      2.95738544	     -8.43648996	      0.26587872	     -4.90899884	     19.75009592	      0.34470420	      6.73244853
     13.48666667	     -1.67701529	     -1.13267259	      2.56839429	      2.26925172	      1.02676529	      1.03314628	     27.69308578	     -2.37721577	     -5.31140824	     52.80706718	      0.92165719	      2.66906543	     -9.72697828	     -0.32224020	     -5.21028953	     18.72349665	      0.32678666	      4.26786456
     13.49333333	     -2.21637152	     -1.48863814	      2.43870060	      2.27054125	      1.02967000	      1.03390962	     27.82152198	     -1.66068799	     -5.41174882	     49.03212471	      0.85577202	      2.37292357	    -10.23678131	     -0.78743571	     -5.55406639	     18.15675602	      0.31689517	      1.85925224
     13.50000000	     -3.19301083	     -1.70331321	      2.29966440	      2.27178784	      1.03182144	      1.03480618	     28.37269547	     -1.03056138	     -5.27001638	     45.21970139	      0.78923268	      2.07394605	    -10.07966434	     -1.12384339	     -5.90374048	     17.94851612	      0.31326070	     -0.41461157
     13.50666667	     -4.05311309	     -1.85686186	      2.14988602	      2.27297088	      1.03386019	      1.03577182	     28.69084354	     -0.38061583	     -4.88260774	     41.28638650	      0.72058338	      1.83541558	     -9.92478359	     -1.41512738	     -6.23320524	     17.93051219	      0.31294647	     -2.62320035
